<svg width="620" height="200" viewBox="0 0 620 200" fill="none" xmlns="http://www.w3.org/2000/svg" role="img" aria-label="AgentTrustCI — policy, grounding and trajectory tests for Java LLM agents">
  <defs>
    <linearGradient id="s" x1="0" y1="0" x2="620" y2="200" gradientUnits="userSpaceOnUse">
      <stop offset="0" stop-color="#ffffff"/><stop offset="1" stop-color="#f6f8fc"/>
    </linearGradient>
  </defs>
  <rect x="1" y="1" width="618" height="198" rx="16" fill="url(#s)" stroke="#cdd6e0"/>
  <rect x="1" y="1" width="6" height="198" rx="3" fill="#c2890f"/>
  <g font-family="-apple-system,BlinkMacSystemFont,'Segoe UI',Roboto,Helvetica,Arial,sans-serif">
    <!-- icon: beaker -->
    <rect x="34" y="30" width="46" height="46" rx="12" fill="#c2890f" fill-opacity="0.12" stroke="#c2890f" stroke-opacity="0.4"/>
    <path d="M53 38 v10 l-9 15 a3 3 0 0 0 2.6 4.5 h18.8 a3 3 0 0 0 2.6 -4.5 l-9 -15 v-10" fill="none" stroke="#c2890f" stroke-width="2.6" stroke-linejoin="round"/>
    <line x1="50" y1="38" x2="64" y2="38" stroke="#c2890f" stroke-width="2.6" stroke-linecap="round"/>
    <circle cx="57" cy="61" r="2.4" fill="#c2890f"/>
    <text x="96" y="52" font-size="26" font-weight="700" fill="#17202e">AgentTrustCI</text>
    <text x="96" y="74" font-family="'SFMono-Regular',ui-monospace,Consolas,Menlo,monospace" font-size="12.5" fill="#c2890f">agent behavior tests, in JUnit &amp; CI</text>
    <text x="34" y="112" font-size="15" fill="#4c5a6b">Policy, grounding, and trajectory checks for Java LLM</text>
    <text x="34" y="134" font-size="15" fill="#4c5a6b">agents — tested in CI alongside your app tests.</text>
  </g>
  <g font-family="'SFMono-Regular',ui-monospace,Consolas,Menlo,monospace" font-size="12">
    <rect x="34" y="156" width="112" height="26" rx="13" fill="#eef2f7" stroke="#cdd6e0"/>
    <text x="49" y="173" fill="#33404f">Java · JUnit</text>
    <rect x="156" y="156" width="126" height="26" rx="13" fill="#fdf3d6" stroke="#ecd28f"/>
    <circle cx="172" cy="169" r="4" fill="#c2890f"/>
    <text x="184" y="173" fill="#a06f12">experimental</text>
  </g>
</svg>
